# xmcd
#
# Track frame offsets: 
#        150
#        14527
#        29041
#        40094
#        53617
#        69425
#        82984
#        93776
#        110159
#        123370
#        133983
#        143736
#        156451
#        183723
#
# Disc length: 2591 seconds
#
# Revision: 0
# Processed by: cddbd v1.5.1PL0 Copyright (c) Steve Scherf et al.
# Submitted via: ExactAudioCopy v0.95b2
#
DISCID=c50a1d0e
DTITLE=T. Griffin Coraline - The Sea Won't Take Long
DYEAR=2004
DGENRE=Country
TTITLE0=Broken Bird
TTITLE1=Nellie Bly
TTITLE2=Aeroplane
TTITLE3=Ghost Parking
TTITLE4=Missouri
TTITLE5=Submarine
TTITLE6=Woolworth
TTITLE7=Miss Your Plane
TTITLE8=Dry
TTITLE9=Blood For Blood
TTITLE10=Raincoat
TTITLE11=Alabama
TTITLE12=The Sea Won't Take Long
TTITLE13=Redbirds
EXTD=
EXTT0=
EXTT1=
EXTT2=
EXTT3=
EXTT4=
EXTT5=
EXTT6=
EXTT7=
EXTT8=
EXTT9=
EXTT10=
EXTT11=
EXTT12=
EXTT13=
PLAYORDER=
